# xmcd
#
# Track frame offsets:
#	150
#	15352
#	35050
#	53480
#	79037
#	93725
#	115370
#	137027
#	156077
#	192007
#	207784
#	229590
#
# Disc length: 3375 seconds
#
# Revision: 1
# Processed by: cddbd v1.4PL0 Copyright (c) Steve Scherf et al.
# Submitted via: audiograbber 1.81.01
#
DISCID=920d2d0c
DTITLE=Smokehouse - Edge Of The Swamp
DYEAR=1998
DGENRE=Blues
TTITLE0=Them Jelly Blues
TTITLE1=Creepin' Blues
TTITLE2=Son Of A King
TTITLE3=Hoodoo Lover
TTITLE4=Swamp Jukin'
TTITLE5=Haints In My House
TTITLE6=Hoy Hoy Hoy
TTITLE7=Credit Card Blues
TTITLE8=Go Down Moses
TTITLE9=What's Your Flavor Baby
TTITLE10=Bisquit Roller
TTITLE11=95 South (The High Sheriff Form Hell)
EXTD=
EXTT0=
EXTT1=
EXTT2=
EXTT3=
EXTT4=
EXTT5=
EXTT6=
EXTT7=
EXTT8=
EXTT9=
EXTT10=
EXTT11=
PLAYORDER=
